<svg id="Layer_1" data-name="Layer 1" xmlns="http://www.w3.org/2000/svg" viewBox="0 0 1880.74 569.57"><defs><style>.cls-1{fill:#af4a38;}.cls-2,.cls-3{fill:none;stroke:#e0c22d;stroke-miterlimit:10;}.cls-2{stroke-width:2px;}.cls-4{font-size:60px;font-family:BaskOldFace, Baskerville Old Face;}</style></defs><title>grn-brows_logo</title><path class="cls-1" d="M466.5,370.5c31.9-87,201.7-138.74,287-85,34.19,21.54,41.87,52.05,95,75,51.35,22.18,75,7.38,93,25,41.89,41-4.8,200.91-112,294-137.09,119-361.4,118.65-396,52-23.4-45.07,55.9-92.09,53-217C484.6,432.85,449.88,415.84,466.5,370.5Z" transform="translate(-335.07 -206.93)"/><path class="cls-2" d="M567,208c-78.93.95-151.24,1.82-195,52C270.87,376,407.28,657.9,486,656c32.71-.79,39-50.17,94-63,58.68-13.68,90.53,33.41,144,38,106.79,9.17,259.86-154.63,232-273C919.7,203.75,595.26,207.66,567,208Z" transform="translate(-335.07 -206.93)"/><path class="cls-3" d="M1149.5,462.5" transform="translate(-335.07 -206.93)"/><text class="cls-4" transform="translate(178.99 317.77)">GRN_BROWS</text><text x="-335.07" y="-206.93"/></svg>